<svg width="2138" height="531" viewBox="0 0 2138 531" fill="none" xmlns="http://www.w3.org/2000/svg">
<path d="M212.041 411.987L394.068 3.59204H364.503L199.033 374.293L198.425 375.657L197.816 374.293L32.3467 3.59204H1.02734L183.055 411.987H212.041Z" fill="white" stroke="white" stroke-width="1.33333"/>
<path d="M866.872 272.175L759.174 35.7038L652.06 272.175H866.872ZM877.995 297.345H640.352L588.258 412.654H556.065L744.539 2.92659H774.393L962.867 412.654H930.674L877.995 297.345Z" fill="white"/>
<path d="M1482.95 350.929L1482.7 351.128C1449.19 378.171 1409.22 388.738 1365.8 388.738C1258.92 388.738 1179.59 310.606 1179.59 207.79C1179.59 104.388 1258.92 26.844 1365.8 26.844C1415.46 26.844 1458.21 40.2276 1493.97 75.1409L1511.79 56.1995C1475.67 19.2005 1423.95 0.666329 1365.21 0.66626C1241.47 0.66626 1151.07 88.7715 1151.07 207.79C1151.07 326.809 1241.47 414.913 1364.63 414.913C1420.58 414.913 1473.58 397.459 1510.29 362.615V210.213H1482.95V350.929Z" fill="white" stroke="white" stroke-width="1.33333"/>
<path d="M1762.29 411.987L1814.2 297.07L1814.38 296.678H2052.88L2053.06 297.068L2105.56 411.987H2136.28L1948.42 3.59302H1919.43L1731.57 411.987H1762.29ZM1825.91 271.901L1933.03 35.429L1933.63 34.092L1934.24 35.428L2041.94 271.899L2042.37 272.842H1825.48L1825.91 271.901Z" fill="white" stroke="white" stroke-width="1.33333"/>
<path d="M1023.89 529.194C1024.84 529.194 1025.68 528.959 1026.42 528.495L1026.42 528.494C1027.14 528.046 1027.65 527.407 1027.96 526.546V526.545L1052.07 458.599C1052.24 458.083 1052.32 457.642 1052.34 457.27L1052.35 457.113C1052.35 456.161 1052.02 455.449 1051.36 454.908C1050.67 454.338 1049.85 454.047 1048.85 454.047C1048.22 454.047 1047.64 454.196 1047.1 454.495L1046.87 454.632C1046.31 454.998 1045.9 455.553 1045.65 456.351L1045.65 456.363L1045.64 456.375L1024.42 517.173L1023.79 518.974L1023.16 517.174L1002.15 457.12L1002.14 457.111C1001.86 456.275 1001.45 455.639 1000.91 455.175L1000.68 454.985C1000 454.496 999.283 454.262 998.509 454.262C997.72 454.262 996.997 454.486 996.324 454.944H996.323C995.681 455.381 995.19 456.049 994.874 457.003L994.87 457.017L973.536 516.964L972.9 518.751L972.278 516.958L951.265 456.373L951.258 456.352C951.014 455.565 950.589 455.01 949.994 454.64C949.35 454.242 948.673 454.048 947.948 454.048C946.962 454.049 946.095 454.352 945.324 454.968C944.593 455.553 944.242 456.286 944.242 457.22C944.242 457.623 944.328 458.077 944.519 458.587L944.523 458.598L968.736 526.544C969.044 527.406 969.555 528.046 970.274 528.494L970.275 528.495C971.024 528.964 971.826 529.194 972.695 529.194C973.564 529.194 974.366 528.964 975.114 528.495H975.115C975.832 528.046 976.344 527.406 976.654 526.543L997.774 467.449L998.405 465.684L999.03 467.451L1019.94 526.545L1019.94 526.544C1020.24 527.406 1020.76 528.046 1021.47 528.494L1021.48 528.495C1022.22 528.963 1023.02 529.194 1023.89 529.194Z" fill="white" stroke="white" stroke-width="1.33333"/>
<path d="M1127.36 528.554H1167.25C1168.35 528.554 1169.14 528.298 1169.69 527.856L1169.8 527.765C1170.27 527.337 1170.56 526.753 1170.63 525.952L1170.64 525.594C1170.64 524.519 1170.33 523.825 1169.81 523.382C1169.26 522.912 1168.43 522.633 1167.25 522.633H1130.85V493.995H1165.12C1166.22 493.995 1167 493.738 1167.55 493.297L1167.66 493.206C1168.14 492.777 1168.43 492.193 1168.49 491.391L1168.51 491.034C1168.51 490.048 1168.2 489.354 1167.66 488.864C1167.11 488.367 1166.29 488.075 1165.12 488.075H1130.85V460.608H1167.25C1168.35 460.608 1169.14 460.352 1169.69 459.91L1169.8 459.819C1170.27 459.391 1170.56 458.806 1170.63 458.005L1170.64 457.648C1170.64 456.662 1170.34 455.968 1169.79 455.477C1169.24 454.979 1168.42 454.687 1167.25 454.687H1127.36C1126.15 454.688 1125.24 455.035 1124.57 455.676C1123.9 456.316 1123.55 457.164 1123.55 458.288V524.955C1123.55 526.079 1123.9 526.927 1124.57 527.566C1125.24 528.207 1126.15 528.554 1127.36 528.554Z" fill="white" stroke="white" stroke-width="1.33333"/>
<path d="M1320.21 529.406C1325.21 529.406 1329.66 528.636 1333.57 527.108L1334.35 526.793C1338.45 525.057 1341.6 522.638 1343.83 519.55C1346.05 516.471 1347.17 512.911 1347.17 508.847C1347.17 504.568 1345.98 501.223 1343.67 498.741C1341.45 496.355 1338.69 494.521 1335.38 493.244L1334.71 492.996C1331.5 491.854 1327.23 490.613 1321.88 489.274L1319.52 488.695C1313.9 487.357 1309.58 485.802 1306.61 484.008L1306.03 483.646C1302.95 481.624 1301.41 478.575 1301.41 474.606C1301.41 470.007 1303.13 466.37 1306.59 463.78C1310.01 461.209 1314.76 459.967 1320.75 459.967C1324.73 459.967 1328.21 460.473 1331.17 461.504L1331.76 461.717C1334.82 462.885 1338.1 464.911 1341.6 467.764C1342.84 468.517 1343.73 468.82 1344.32 468.82C1344.85 468.82 1345.34 468.581 1345.81 467.964C1346.29 467.341 1346.53 466.614 1346.53 465.755L1346.53 465.542C1346.47 464.55 1346.06 463.601 1345.21 462.687L1345.02 462.491C1342.18 459.726 1338.66 457.588 1334.44 456.088C1330.22 454.587 1325.65 453.833 1320.75 453.833C1315.49 453.833 1310.83 454.727 1306.77 456.498C1302.71 458.268 1299.58 460.755 1297.35 463.948L1297.35 463.949C1295.12 467.137 1294 470.789 1294 474.927C1294 479.29 1295.12 482.754 1297.31 485.381C1299.54 488.059 1302.47 490.131 1306.11 491.588C1309.8 493.065 1314.55 494.479 1320.36 495.826C1324.71 496.824 1328.19 497.79 1330.78 498.727H1330.78C1333.41 499.677 1335.56 500.948 1337.21 502.558C1338.92 504.23 1339.76 506.419 1339.76 509.06V509.061C1339.76 513.594 1338.03 517.147 1334.57 519.63H1334.57C1331.14 522.089 1326.29 523.273 1320.1 523.273C1311.5 523.273 1303.83 520.669 1297.1 515.465C1296.1 514.732 1295.24 514.421 1294.5 514.421H1294.5C1293.97 514.42 1293.48 514.659 1293.01 515.276L1293.01 515.277L1292.84 515.517C1292.48 516.085 1292.29 516.735 1292.29 517.486C1292.29 518.799 1292.75 519.865 1293.68 520.73C1296.51 523.352 1300.31 525.462 1305.11 527.04C1309.91 528.617 1314.95 529.406 1320.21 529.406Z" fill="white" stroke="white" stroke-width="1.33333"/>
<path d="M1422.93 529.089C1424.06 529.088 1424.9 528.772 1425.53 528.189L1425.65 528.068C1426.29 527.398 1426.64 526.49 1426.64 525.276V457.968C1426.64 456.754 1426.29 455.847 1425.65 455.177C1425.01 454.516 1424.14 454.156 1422.93 454.156C1421.72 454.156 1420.84 454.516 1420.21 455.177C1419.57 455.847 1419.22 456.754 1419.22 457.968V525.276C1419.22 526.414 1419.53 527.283 1420.09 527.94L1420.21 528.068C1420.84 528.729 1421.72 529.088 1422.93 529.089Z" fill="white" stroke="white" stroke-width="1.33333"/>
<path d="M1568.05 529.088C1569.18 529.087 1569.98 528.746 1570.54 528.132C1571.08 527.537 1571.39 526.745 1571.43 525.7L1571.44 525.487V457.967C1571.44 456.746 1571.1 455.835 1570.49 455.165C1569.9 454.515 1569.04 454.157 1567.84 454.156C1567.13 454.156 1566.53 454.308 1566.02 454.598L1565.81 454.731C1565.27 455.106 1564.71 455.794 1564.16 456.879L1564.16 456.885L1537.39 508.834L1536.8 509.976L1536.2 508.837L1509.11 456.888L1509.11 456.886C1508.12 454.967 1506.88 454.156 1505.44 454.156C1504.23 454.157 1503.35 454.515 1502.72 455.176H1502.72C1502.08 455.847 1501.73 456.754 1501.73 457.967V525.488L1501.73 525.701C1501.77 526.676 1502.04 527.43 1502.52 528.01L1502.62 528.132C1503.18 528.747 1503.98 529.088 1505.12 529.088C1506.25 529.087 1507.02 528.746 1507.55 528.144C1508.09 527.511 1508.4 526.648 1508.4 525.488V471.514L1509.65 471.202L1532.9 515.041L1532.91 515.048C1533.9 516.956 1535.16 517.781 1536.69 517.781H1536.69C1537.52 517.781 1538.23 517.56 1538.84 517.131C1539.45 516.696 1540 516.022 1540.46 515.063L1540.47 515.054L1540.47 515.045L1563.62 470.674L1564.88 470.981V525.488C1564.88 526.656 1565.17 527.525 1565.69 528.158H1565.69C1566.14 528.709 1566.82 529.044 1567.84 529.084L1568.05 529.088Z" fill="white" stroke="white" stroke-width="1.33333"/>
<path d="M1651.68 529.089C1652.81 529.088 1653.65 528.772 1654.27 528.188L1654.39 528.068C1655.03 527.398 1655.38 526.49 1655.38 525.275V497.728H1677.06C1684.78 497.728 1690.71 495.802 1694.97 492.03C1699.2 488.27 1701.35 482.992 1701.35 476.103C1701.35 469.21 1699.22 463.969 1695.02 460.282C1690.81 456.582 1684.85 454.689 1677.06 454.688H1651.78L1651.56 454.692C1650.53 454.731 1649.73 455.033 1649.12 455.562L1648.99 455.678L1648.87 455.8C1648.28 456.423 1647.97 457.234 1647.97 458.288V525.275C1647.97 526.49 1648.32 527.398 1648.96 528.068C1649.59 528.728 1650.47 529.088 1651.68 529.089ZM1655.38 460.609H1676.21C1682.01 460.609 1686.49 461.861 1689.52 464.479C1692.57 467.112 1694.05 471.03 1694.05 476.103C1694.05 481.243 1692.58 485.213 1689.53 487.884C1686.49 490.539 1682.01 491.81 1676.21 491.81H1655.38V460.609Z" fill="white" stroke="white" stroke-width="1.33333"/>
<path d="M1775.56 528.554H1814.5C1815.67 528.554 1816.49 528.263 1817.04 527.766L1817.04 527.765C1817.51 527.344 1817.8 526.738 1817.87 525.875L1817.89 525.488C1817.89 524.415 1817.57 523.692 1817.04 523.211C1816.49 522.714 1815.67 522.422 1814.5 522.422H1779.38V457.966C1779.38 456.754 1779.03 455.848 1778.39 455.176C1777.76 454.516 1776.88 454.157 1775.67 454.156C1774.46 454.157 1773.58 454.516 1772.95 455.176C1772.31 455.848 1771.97 456.754 1771.97 457.966V525.168C1771.97 526.208 1772.31 527.001 1772.97 527.609H1772.97C1773.66 528.232 1774.5 528.554 1775.56 528.554Z" fill="white" stroke="white" stroke-width="1.33333"/>
<path d="M1889.8 529.089C1890.94 529.088 1891.78 528.772 1892.4 528.189L1892.52 528.068C1893.16 527.398 1893.51 526.49 1893.51 525.276V457.968C1893.51 456.754 1893.16 455.847 1892.52 455.177C1891.89 454.516 1891.01 454.156 1889.8 454.156C1888.6 454.156 1887.72 454.516 1887.09 455.177C1886.45 455.847 1886.1 456.754 1886.1 457.968V525.276C1886.1 526.414 1886.4 527.283 1886.97 527.94L1887.09 528.068C1887.72 528.729 1888.6 529.088 1889.8 529.089Z" fill="white" stroke="white" stroke-width="1.33333"/>
<path d="M1972.31 529.089C1973.52 529.088 1974.37 528.728 1974.97 528.079C1975.58 527.41 1975.91 526.498 1975.91 525.276V493.996H2009.11C2010.21 493.996 2011 493.74 2011.55 493.298L2011.65 493.207C2012.13 492.778 2012.42 492.193 2012.48 491.392L2012.5 491.035C2012.5 489.962 2012.19 489.24 2011.65 488.758C2011.1 488.26 2010.28 487.968 2009.11 487.968H1975.91V460.716H2011.25C2012.42 460.716 2013.23 460.424 2013.79 459.927C2014.26 459.497 2014.55 458.913 2014.62 458.112L2014.63 457.756C2014.63 456.683 2014.32 455.961 2013.79 455.479L2013.78 455.478C2013.23 454.98 2012.42 454.689 2011.25 454.689H1972.42C1971.28 454.689 1970.41 454.994 1969.75 455.561L1969.63 455.678L1969.5 455.8C1968.91 456.423 1968.6 457.234 1968.6 458.288V525.276C1968.6 526.414 1968.91 527.283 1969.48 527.94L1969.59 528.068C1970.23 528.729 1971.1 529.088 1972.31 529.089Z" fill="white" stroke="white" stroke-width="1.33333"/>
<path d="M2106.07 529.088C2107.13 529.087 2107.97 528.787 2108.63 528.216L2108.76 528.098C2109.41 527.473 2109.78 526.564 2109.78 525.274V492.83L2109.92 492.647L2135.84 459.901L2135.85 459.885L2135.87 459.869C2136.39 459.295 2136.66 458.57 2136.66 457.648L2136.65 457.469C2136.62 456.585 2136.29 455.853 2135.68 455.24C2135.01 454.568 2134.28 454.261 2133.48 454.261C2132.5 454.262 2131.66 454.68 2130.91 455.611L2106.7 486.643L2106.18 487.316L2105.65 486.644L2081.33 455.606C2080.59 454.678 2079.74 454.261 2078.76 454.261C2077.88 454.262 2077.1 454.579 2076.4 455.25C2075.71 455.906 2075.38 456.692 2075.38 457.648C2075.38 458.467 2075.66 459.198 2076.27 459.866L2076.29 459.883L2076.3 459.9L2102.22 492.54L2102.36 492.722V525.274C2102.36 526.484 2102.69 527.358 2103.27 527.977L2103.39 528.098C2104.02 528.706 2104.83 529.044 2105.86 529.084L2106.07 529.088Z" fill="white" stroke="white" stroke-width="1.33333"/>
</svg>
