<svg width="2212" height="464" viewBox="0 0 2212 464" fill="none" xmlns="http://www.w3.org/2000/svg">
<path d="M257.236 448.654L260.407 441.539L443.029 31.8108L450.555 14.925H393.259L390.086 22.0344L235.398 368.581L80.7095 22.0344L77.5366 14.925H18.4868L26.0122 31.8108L208.635 441.539L211.806 448.654H257.236Z" fill="white" stroke="white" stroke-width="24"/>
<path d="M632.978 448.654L636.167 441.594L685.072 333.345H907.257L956.732 441.64L959.936 448.654H1018.57L1010.74 431.639L822.268 21.9114L819.055 14.927H773.823L770.611 21.9114L582.136 431.639L574.31 448.654H632.978ZM796.177 88.7219L885.195 284.175H707.643L796.177 88.7219Z" fill="white" stroke="white" stroke-width="24"/>
<path d="M1559.93 221.546H1507.25V368.738C1477.45 390.994 1442.11 400.072 1402.77 400.072C1302.59 400.072 1229.22 327.318 1229.22 231.79C1229.22 135.703 1302.56 63.511 1402.77 63.511C1450.11 63.511 1489.56 76.1996 1522.54 108.647L1531.29 117.249L1539.7 108.317L1558.43 88.4153L1566.28 80.0706L1558.31 71.8411C1519.28 31.5552 1463.8 12.0003 1402.19 12.0002C1271.83 12.0002 1175.37 105.407 1175.37 231.79C1175.37 358.151 1271.8 451.58 1401.6 451.58C1460.11 451.58 1516.6 433.31 1556.21 395.592L1559.93 392.045V221.546Z" fill="white" stroke="white" stroke-width="24"/>
<path d="M1807.44 448.654L1810.63 441.594L1859.53 333.345H2081.72L2131.19 441.64L2134.4 448.654H2193.03L2185.2 431.639L1996.73 21.9114L1993.51 14.927H1948.28L1945.07 21.9114L1756.6 431.639L1748.77 448.654H1807.44ZM1970.64 88.7219L2059.65 284.175H1882.1L1970.64 88.7219Z" fill="white" stroke="white" stroke-width="24"/>
</svg>
