<?xml version="1.0" encoding="UTF-8"?> <svg xmlns="http://www.w3.org/2000/svg" xmlns:xlink="http://www.w3.org/1999/xlink" width="192px" height="121px" viewBox="0 0 192 121"><!-- Generator: Sketch 52.6 (67491) - http://www.bohemiancoding.com/sketch --><title>GPI logo</title><desc>Created with Sketch.</desc><g id="Page-1" stroke="none" stroke-width="1" fill="none" fill-rule="evenodd"><g id="GPI-logo"><path d="M40.8,108 C18.5,108 0.3,89.9 0.3,67.6 C0.3,45.3 18.4,27.1 40.8,27.1 C51.3,27.1 61.2,31.1 68.8,38.3 L59.3,48.2 C54.3,43.4 47.7,40.8 40.8,40.8 C26.1,40.8 14.1,52.8 14.1,67.5 C14.1,82.2 26.1,94.2 40.8,94.2 C55.5,94.2 67.5,82.2 67.5,67.5 L81.2,67.5 C81.2,89.8 63.1,108 40.8,108" id="Path" fill="#FF6600"></path><rect id="Rectangle" fill="#82027E" x="36.1" y="53.8" width="45.1" height="13.7"></rect><path d="M181.4,0.4 C175.6,0.4 170.9,5.1 170.9,10.9 C170.9,16.7 175.6,21.4 181.4,21.4 C187.2,21.4 191.8,16.7 191.8,10.9 C191.9,5.1 187.2,0.4 181.4,0.4" id="Path" fill="#82027E"></path><path d="M168.1,67.5 C168.1,45.2 150,27.1 127.6,27.1 C105.3,27.1 87.1,42.9 87.1,67.5 L87.1,120.9 L87.1,67.9 L101,67.9 C101.4,52.7 112.4,40.9 127.7,40.9 C142.4,40.9 154.4,52.9 154.4,67.6 C154.4,82.3 142.4,94.3 127.7,94.3 C123.1,94.3 118.6,93.1 114.7,90.9 L108,102.9 C114,106.2 120.8,108 127.7,108 C150,108 168.1,89.8 168.1,67.5" id="Path" fill="#FF6600"></path><rect id="Rectangle" fill="#FF6600" x="174.5" y="30.3" width="13.7" height="75"></rect><rect id="Rectangle" fill="#82027E" x="87.2" y="67.8" width="13.7" height="53"></rect></g></g></svg> 