<?xml version="1.0" encoding="utf-8"?>
<!-- Generator: Adobe Illustrator 24.0.0, SVG Export Plug-In . SVG Version: 6.00 Build 0)  -->
<svg version="1.1" id="Layer_1" xmlns="http://www.w3.org/2000/svg" xmlns:xlink="http://www.w3.org/1999/xlink" x="0px" y="0px"
	 viewBox="0 0 596 216" style="enable-background:new 0 0 596 216;" xml:space="preserve">
<style type="text/css">
	.st0{clip-path:url(#SVGID_2_);}
	.st1{clip-path:url(#SVGID_2_);fill:#E30613;}
	.st2{clip-path:url(#SVGID_2_);fill:#009640;}
	.st3{fill:none;stroke:#000000;stroke-width:1.077;}
	.st4{clip-path:url(#SVGID_4_);fill:#A4A3A3;}
	.st5{clip-path:url(#SVGID_4_);fill:#009640;}
	.st6{clip-path:url(#SVGID_4_);fill:#E30613;}
</style>
<g>
	<defs>
		<rect id="SVGID_1_" x="-153" y="-173.28" width="841.89" height="595.28"/>
	</defs>
	<clipPath id="SVGID_2_">
		<use xlink:href="#SVGID_1_"  style="overflow:visible;"/>
	</clipPath>
	<path class="st0" d="M392.47,204.08c1.45,0,2.61-0.51,3.3-1.69c0,0.84,0.22,1.45,0.75,1.69l1.12-0.71
		c-0.41-0.22-0.55-0.53-0.55-1.02v-4.77c0-2.73-1.37-3.61-3.77-3.61c-2,0-3.28,1.02-3.59,2.39l1.24,0.82
		c0.06-1.26,0.92-2.1,2.26-2.1c1.34,0,2.1,0.63,2.1,2.55c-3.45,0.06-5.91,1.37-5.91,3.67C389.43,203.1,390.61,204.08,392.47,204.08
		 M392.96,202.89c-1,0-1.73-0.55-1.73-1.67c0-1.51,1.33-2.51,4.12-2.61v2.06C395.34,202.14,394.14,202.89,392.96,202.89 M386,192.07
		c0.57,0,1.08-0.39,1.08-1.02c0-0.63-0.51-1.02-1.08-1.02c-0.59,0-1.1,0.41-1.1,1.02C384.9,191.68,385.41,192.07,386,192.07
		 M385.13,203.83h1.73v-9.58h-1.73V203.83z M373.81,189.39v14.44h1.73v-6.46c0-1.28,1.16-2.1,2.37-2.1c1.3,0,2.18,0.82,2.18,2.26
		v6.3h1.73v-6.46c0-2.43-1.61-3.41-3.63-3.41c-1.08,0-2.08,0.49-2.65,1.33v-6.22L373.81,189.39z M368.18,204.08
		c2.02,0,3.14-1,3.45-2.34l-1.16-0.92c-0.02,1.24-0.9,2.04-2.24,2.04c-1.69,0-2.69-1.65-2.69-3.89c0-2.22,0.96-3.77,2.69-3.77
		c1.39,0,2.26,0.8,2.28,2l1.14-0.86c-0.31-1.37-1.45-2.37-3.47-2.37c-2.85,0-4.53,2.16-4.53,5
		C363.66,201.83,365.31,204.08,368.18,204.08 M357.03,203.83h1.73v-6.2c0-1.3,0.59-2.26,1.75-2.26c0.67,0,1.12,0.47,1.12,1.22
		l1.2-0.67c0-1.06-0.69-1.96-2.1-1.96c-1.2,0-2.02,0.69-2.43,1.77c-0.02-0.73-0.29-1.53-0.79-1.77l-1.14,0.71
		c0.41,0.22,0.65,0.61,0.65,1.1V203.83z M353.59,194.25h-1.75v6.42c0,1.3-1.18,2.1-2.38,2.1c-1.31,0-2.16-0.82-2.16-2.22v-6.3h-1.73
		v6.44c0,2.39,1.59,3.36,3.65,3.36c1.41,0,2.51-0.69,3.08-1.75c0,0.75,0.24,1.53,0.75,1.77l1.14-0.71c-0.41-0.22-0.59-0.61-0.59-1.1
		V194.25z M339.27,203.83h1.88v-12.91h4.3l0.29-1.37h-11.05l0.31,1.37h4.28V203.83z M319.45,203.83h1.73v-6.32
		c0-1.43,1.16-2.24,2.37-2.24c1.33,0,2.2,0.82,2.2,2.24v6.32h1.71v-6.48c0-2.41-1.57-3.38-3.63-3.38c-1.51,0-2.55,0.75-3.08,1.77
		c0-0.73-0.2-1.53-0.71-1.77l-1.16,0.71c0.43,0.22,0.57,0.61,0.57,1.1V203.83z M315.21,192.07c0.57,0,1.08-0.39,1.08-1.02
		c0-0.63-0.51-1.02-1.08-1.02c-0.59,0-1.1,0.41-1.1,1.02C314.11,191.68,314.62,192.07,315.21,192.07 M314.33,203.83h1.73v-9.58
		h-1.73V203.83z M300.61,204.08c1.45,0,2.61-0.51,3.3-1.69c0,0.84,0.22,1.45,0.75,1.69l1.12-0.71c-0.41-0.22-0.55-0.53-0.55-1.02
		v-4.77c0-2.73-1.37-3.61-3.77-3.61c-2,0-3.28,1.02-3.59,2.39l1.24,0.82c0.06-1.26,0.92-2.1,2.26-2.1c1.35,0,2.1,0.63,2.1,2.55
		c-3.45,0.06-5.91,1.37-5.91,3.67C297.58,203.1,298.76,204.08,300.61,204.08 M301.1,202.89c-1,0-1.73-0.55-1.73-1.67
		c0-1.51,1.33-2.51,4.12-2.61v2.06C303.49,202.14,302.29,202.89,301.1,202.89 M287.07,203.83h1.73v-6.32c0-1.43,1.16-2.24,2.37-2.24
		c1.33,0,2.2,0.82,2.2,2.24v6.32h1.71v-6.48c0-2.41-1.57-3.38-3.63-3.38c-1.51,0-2.55,0.75-3.08,1.77c0-0.73-0.2-1.53-0.71-1.77
		l-1.16,0.71c0.43,0.22,0.57,0.61,0.57,1.1V203.83z M279.2,204.08c1.45,0,2.61-0.51,3.3-1.69c0,0.84,0.23,1.45,0.75,1.69l1.12-0.71
		c-0.41-0.22-0.55-0.53-0.55-1.02v-4.77c0-2.73-1.37-3.61-3.77-3.61c-2,0-3.28,1.02-3.59,2.39l1.24,0.82
		c0.06-1.26,0.92-2.1,2.26-2.1c1.35,0,2.1,0.63,2.1,2.55c-3.45,0.06-5.91,1.37-5.91,3.67C276.17,203.1,277.35,204.08,279.2,204.08
		 M279.69,202.89c-1,0-1.73-0.55-1.73-1.67c0-1.51,1.33-2.51,4.12-2.61v2.06C282.08,202.14,280.88,202.89,279.69,202.89
		 M272.74,192.07c0.57,0,1.08-0.39,1.08-1.02c0-0.63-0.51-1.02-1.08-1.02c-0.59,0-1.1,0.41-1.1,1.02
		C271.64,191.68,272.15,192.07,272.74,192.07 M271.86,203.83h1.73v-9.58h-1.73V203.83z M266.75,203.83h1.73v-14.76l-1.73,0.33
		V203.83z M258.88,204.08c1.45,0,2.61-0.51,3.3-1.69c0,0.84,0.22,1.45,0.75,1.69l1.12-0.71c-0.41-0.22-0.55-0.53-0.55-1.02v-4.77
		c0-2.73-1.37-3.61-3.77-3.61c-2,0-3.28,1.02-3.59,2.39l1.24,0.82c0.06-1.26,0.92-2.1,2.26-2.1c1.35,0,2.1,0.63,2.1,2.55
		c-3.45,0.06-5.91,1.37-5.91,3.67C255.84,203.1,257.02,204.08,258.88,204.08 M259.37,202.89c-1,0-1.73-0.55-1.73-1.67
		c0-1.51,1.33-2.51,4.12-2.61v2.06C261.75,202.14,260.55,202.89,259.37,202.89 M252.29,204.08c1.43,0,2.2-0.63,2.41-1.59l-1-0.88
		c-0.06,0.8-0.53,1.2-1.28,1.2c-0.75,0-1.24-0.45-1.24-1.81v-5.53h3.22v-1.22h-3.22v-2.9l-1.73,0.73v2.16h-1.45v1.22h1.45v5.69
		C249.44,202.91,250.21,204.08,252.29,204.08 M243.73,203.83h1.88v-14.27h-1.88V203.83z"/>
	<path class="st0" d="M528.41,179.61c1.45,0,2.61-0.51,3.3-1.69c0,0.84,0.22,1.45,0.75,1.69l1.12-0.71
		c-0.41-0.22-0.55-0.53-0.55-1.02v-4.77c0-2.73-1.37-3.61-3.77-3.61c-2,0-3.28,1.02-3.59,2.38l1.24,0.82
		c0.06-1.26,0.92-2.1,2.26-2.1c1.35,0,2.1,0.63,2.1,2.55c-3.45,0.06-5.91,1.37-5.91,3.67C525.37,178.63,526.55,179.61,528.41,179.61
		 M528.9,178.42c-1,0-1.73-0.55-1.73-1.67c0-1.51,1.32-2.51,4.12-2.61v2.06C531.28,177.67,530.08,178.42,528.9,178.42 M521.94,167.6
		c0.57,0,1.08-0.39,1.08-1.02c0-0.63-0.51-1.02-1.08-1.02c-0.59,0-1.1,0.41-1.1,1.02C520.84,167.21,521.35,167.6,521.94,167.6
		 M521.07,179.36h1.73v-9.58h-1.73V179.36z M513.62,179.36h1.73v-6.2c0-1.31,0.59-2.26,1.75-2.26c0.67,0,1.12,0.47,1.12,1.22
		l1.2-0.67c0-1.06-0.69-1.96-2.1-1.96c-1.2,0-2.02,0.69-2.43,1.77c-0.02-0.73-0.29-1.53-0.8-1.77l-1.14,0.71
		c0.41,0.22,0.65,0.61,0.65,1.1V179.36z M509.24,179.61c1.43,0,2.2-0.63,2.41-1.59l-1-0.88c-0.06,0.79-0.53,1.2-1.28,1.2
		c-0.75,0-1.24-0.45-1.24-1.82V171h3.22v-1.22h-3.22v-2.89l-1.73,0.73v2.16h-1.45V171h1.45v5.69
		C506.39,178.44,507.16,179.61,509.24,179.61 M499.9,179.61c2.37,0,3.81-1.1,3.81-2.92c0-1.63-0.86-2.67-3.43-3.12
		c-1.71-0.31-2.1-0.84-2.1-1.51c0-0.9,0.71-1.41,2-1.41c1.35,0,2.22,0.8,2.24,2.04l1.18-0.82c-0.31-1.33-1.47-2.38-3.47-2.38
		c-2.28,0-3.53,1.26-3.53,2.77c0,1.39,0.84,2.49,2.98,2.88c1.98,0.37,2.49,0.77,2.49,1.73c0,1-0.86,1.59-2.22,1.59
		c-1.41,0-2.26-0.79-2.34-2.06l-1.18,0.86C496.64,178.55,497.78,179.61,499.9,179.61 M493.89,169.78h-1.75v6.42
		c0,1.3-1.18,2.1-2.38,2.1c-1.31,0-2.16-0.82-2.16-2.22v-6.3h-1.73v6.44c0,2.39,1.59,3.37,3.65,3.37c1.41,0,2.51-0.69,3.08-1.75
		c0,0.75,0.24,1.53,0.75,1.77l1.14-0.71c-0.41-0.22-0.59-0.61-0.59-1.1V169.78z M478.43,178.4c-1.85,0-2.69-1.73-2.69-3.89
		c0-2.14,0.86-3.77,2.69-3.77c1.33,0,2.45,0.8,2.45,2.37v2.92C480.88,177.59,479.76,178.4,478.43,178.4 M478.29,179.61
		c1.55,0,2.59-0.75,3.02-1.73c0,0.75,0.18,1.51,0.69,1.75l1.18-0.71c-0.45-0.23-0.57-0.61-0.57-1.1V164.6l-1.73,0.33v5.69
		c-0.55-0.67-1.45-1.12-2.59-1.12c-2.75,0-4.43,2.14-4.43,5.02C473.86,177.38,475.52,179.61,478.29,179.61 M463.36,179.36h1.73
		v-6.32c0-1.43,1.16-2.24,2.37-2.24c1.33,0,2.2,0.81,2.2,2.24v6.32h1.71v-6.48c0-2.41-1.57-3.38-3.63-3.38
		c-1.51,0-2.55,0.75-3.08,1.77c0-0.73-0.2-1.53-0.71-1.77l-1.16,0.71c0.43,0.22,0.57,0.61,0.57,1.1V179.36z M457.88,179.36h1.88
		v-14.27h-1.88V179.36z M445.69,179.61c2.02,0,3.14-0.98,3.45-2.32l-1.16-0.92c-0.02,1.22-0.84,2.02-2.2,2.02
		c-1.88,0-2.75-1.63-2.75-3.59c0-0.12,0-0.39,0.02-0.57h6.38c0.1-2.61-1.08-4.73-3.75-4.73c-2.71,0-4.51,2.24-4.51,5.14
		C441.16,177.49,442.81,179.61,445.69,179.61 M443.18,173.18c0.22-1.41,1.24-2.55,2.53-2.55c1.35,0,2.06,1.04,2.16,2.55H443.18z
		 M429.03,178.4c-1.79,0-2.67-1.77-2.67-3.93c0-2.1,0.86-3.77,2.67-3.77c1.81,0,2.65,1.67,2.65,3.77
		C431.68,176.63,430.84,178.4,429.03,178.4 M429.03,179.61c2.85,0,4.53-2.24,4.53-5.14c0-2.88-1.65-4.97-4.53-4.97
		s-4.55,2.1-4.55,4.97C424.48,177.36,426.15,179.61,429.03,179.61 M421.05,167.6c0.57,0,1.08-0.39,1.08-1.02
		c0-0.63-0.51-1.02-1.08-1.02c-0.59,0-1.1,0.41-1.1,1.02C419.95,167.21,420.46,167.6,421.05,167.6 M420.18,179.36h1.73v-9.58h-1.73
		V179.36z M414.55,179.61c2.02,0,3.14-1,3.45-2.34l-1.16-0.92c-0.02,1.24-0.9,2.04-2.24,2.04c-1.69,0-2.69-1.65-2.69-3.9
		c0-2.22,0.96-3.77,2.69-3.77c1.39,0,2.26,0.79,2.28,2l1.14-0.86c-0.31-1.37-1.45-2.36-3.47-2.36c-2.86,0-4.53,2.16-4.53,4.99
		C410.02,177.36,411.68,179.61,414.55,179.61 M403.4,179.36h1.73v-6.2c0-1.31,0.59-2.26,1.75-2.26c0.67,0,1.12,0.47,1.12,1.22
		l1.2-0.67c0-1.06-0.69-1.96-2.1-1.96c-1.2,0-2.02,0.69-2.43,1.77c-0.02-0.73-0.29-1.53-0.79-1.77l-1.14,0.71
		c0.41,0.22,0.65,0.61,0.65,1.1V179.36z M397.26,179.61c2.02,0,3.14-0.98,3.45-2.32l-1.16-0.92c-0.02,1.22-0.84,2.02-2.2,2.02
		c-1.88,0-2.75-1.63-2.75-3.59c0-0.12,0-0.39,0.02-0.57h6.38c0.1-2.61-1.08-4.73-3.75-4.73c-2.71,0-4.51,2.24-4.51,5.14
		C392.73,177.49,394.39,179.61,397.26,179.61 M394.75,173.18c0.22-1.41,1.24-2.55,2.53-2.55c1.35,0,2.06,1.04,2.16,2.55H394.75z
		 M376.75,179.36h1.73v-6.34c0-1.47,1.12-2.22,2.22-2.22c1.28,0,1.94,0.84,1.94,2.22v6.34h1.71v-6.34c0-1.51,1.1-2.22,2.22-2.22
		c1.26,0,1.94,0.84,1.94,2.22v6.34h1.73v-6.46c0-2.28-1.33-3.4-3.34-3.4c-1.24,0-2.37,0.53-3,1.67c-0.51-1.16-1.57-1.67-2.89-1.67
		c-1.49,0-2.43,0.79-2.96,1.77c0-0.73-0.22-1.53-0.71-1.77l-1.16,0.71c0.43,0.22,0.57,0.61,0.57,1.1V179.36z M359.95,179.36h1.73
		v-6.34c0-1.47,1.12-2.22,2.22-2.22c1.29,0,1.94,0.84,1.94,2.22v6.34h1.71v-6.34c0-1.51,1.1-2.22,2.22-2.22
		c1.26,0,1.94,0.84,1.94,2.22v6.34h1.73v-6.46c0-2.28-1.33-3.4-3.34-3.4c-1.24,0-2.37,0.53-3,1.67c-0.51-1.16-1.57-1.67-2.89-1.67
		c-1.49,0-2.43,0.79-2.96,1.77c0-0.73-0.22-1.53-0.71-1.77l-1.16,0.71c0.43,0.22,0.57,0.61,0.57,1.1V179.36z M352.85,178.4
		c-1.8,0-2.67-1.77-2.67-3.93c0-2.1,0.86-3.77,2.67-3.77c1.81,0,2.65,1.67,2.65,3.77C355.5,176.63,354.67,178.4,352.85,178.4
		 M352.85,179.61c2.85,0,4.53-2.24,4.53-5.14c0-2.88-1.65-4.97-4.53-4.97s-4.55,2.1-4.55,4.97
		C348.3,177.36,349.98,179.61,352.85,179.61 M342.7,179.61c2.39,0,3.95-1.16,4.34-2.73l-1.31-0.98c-0.12,1.45-1.47,2.3-3.04,2.3
		c-2.77,0-4.08-2.47-4.08-5.97c0-3.53,1.3-5.97,4.1-5.97c1.57,0,2.9,0.88,3.02,2.28l1.31-0.96c-0.39-1.59-1.96-2.71-4.36-2.71
		c-4,0-6.08,3.16-6.08,7.36C336.6,176.43,338.68,179.61,342.7,179.61 M327.3,167.6c0.57,0,1.08-0.39,1.08-1.02
		c0-0.63-0.51-1.02-1.08-1.02c-0.59,0-1.1,0.41-1.1,1.02C326.2,167.21,326.71,167.6,327.3,167.6 M326.43,179.36h1.73v-9.58h-1.73
		V179.36z M318.9,178.4c-1.86,0-2.69-1.73-2.69-3.89c0-2.14,0.86-3.77,2.69-3.77c1.33,0,2.45,0.8,2.45,2.37v2.92
		C321.35,177.59,320.23,178.4,318.9,178.4 M318.76,179.61c1.55,0,2.59-0.75,3.02-1.73c0,0.75,0.18,1.51,0.69,1.75l1.18-0.71
		c-0.45-0.23-0.57-0.61-0.57-1.1V164.6l-1.73,0.33v5.69c-0.55-0.67-1.45-1.12-2.59-1.12c-2.75,0-4.42,2.14-4.42,5.02
		C314.34,177.38,315.99,179.61,318.76,179.61 M301.43,179.61c1.45,0,2.61-0.51,3.3-1.69c0,0.84,0.23,1.45,0.75,1.69l1.12-0.71
		c-0.41-0.22-0.55-0.53-0.55-1.02v-4.77c0-2.73-1.37-3.61-3.77-3.61c-2,0-3.28,1.02-3.59,2.38l1.24,0.82
		c0.06-1.26,0.92-2.1,2.26-2.1c1.35,0,2.1,0.63,2.1,2.55c-3.45,0.06-5.91,1.37-5.91,3.67C298.39,178.63,299.57,179.61,301.43,179.61
		 M301.92,178.42c-1,0-1.73-0.55-1.73-1.67c0-1.51,1.33-2.51,4.12-2.61v2.06C304.3,177.67,303.1,178.42,301.92,178.42
		 M291.97,179.36h1.73v-6.2c0-1.31,0.59-2.26,1.75-2.26c0.67,0,1.12,0.47,1.12,1.22l1.2-0.67c0-1.06-0.69-1.96-2.1-1.96
		c-1.2,0-2.02,0.69-2.43,1.77c-0.02-0.73-0.29-1.53-0.79-1.77l-1.14,0.71c0.41,0.22,0.65,0.61,0.65,1.1V179.36z M285.83,179.61
		c2.02,0,3.14-0.98,3.45-2.32l-1.16-0.92c-0.02,1.22-0.84,2.02-2.2,2.02c-1.88,0-2.75-1.63-2.75-3.59c0-0.12,0-0.39,0.02-0.57h6.38
		c0.1-2.61-1.08-4.73-3.75-4.73c-2.71,0-4.51,2.24-4.51,5.14C281.3,177.49,282.96,179.61,285.83,179.61 M283.32,173.18
		c0.23-1.41,1.24-2.55,2.53-2.55c1.35,0,2.06,1.04,2.16,2.55H283.32z M265.32,179.36h1.73v-6.34c0-1.47,1.12-2.22,2.22-2.22
		c1.28,0,1.94,0.84,1.94,2.22v6.34h1.71v-6.34c0-1.51,1.1-2.22,2.22-2.22c1.26,0,1.94,0.84,1.94,2.22v6.34h1.73v-6.46
		c0-2.28-1.32-3.4-3.34-3.4c-1.24,0-2.37,0.53-3,1.67c-0.51-1.16-1.57-1.67-2.89-1.67c-1.49,0-2.43,0.79-2.96,1.77
		c0-0.73-0.22-1.53-0.71-1.77l-1.16,0.71c0.43,0.22,0.57,0.61,0.57,1.1V179.36z M257.45,179.61c1.45,0,2.61-0.51,3.3-1.69
		c0,0.84,0.22,1.45,0.75,1.69l1.12-0.71c-0.41-0.22-0.55-0.53-0.55-1.02v-4.77c0-2.73-1.37-3.61-3.77-3.61c-2,0-3.28,1.02-3.59,2.38
		l1.24,0.82c0.06-1.26,0.92-2.1,2.26-2.1c1.35,0,2.1,0.63,2.1,2.55c-3.45,0.06-5.91,1.37-5.91,3.67
		C254.41,178.63,255.59,179.61,257.45,179.61 M257.94,178.42c-1,0-1.73-0.55-1.73-1.67c0-1.51,1.33-2.51,4.12-2.61v2.06
		C260.32,177.67,259.12,178.42,257.94,178.42 M248.8,179.61c2.39,0,3.96-1.16,4.34-2.73l-1.3-0.98c-0.12,1.45-1.47,2.3-3.04,2.3
		c-2.77,0-4.08-2.47-4.08-5.97c0-3.53,1.31-5.97,4.1-5.97c1.57,0,2.9,0.88,3.02,2.28l1.3-0.96c-0.39-1.59-1.96-2.71-4.36-2.71
		c-4,0-6.08,3.16-6.08,7.36C242.71,176.43,244.79,179.61,248.8,179.61"/>
	<path class="st0" d="M581.01,130.13c0.57,0,1.08-0.39,1.08-1.02c0-0.63-0.51-1.02-1.08-1.02c-0.59,0-1.1,0.41-1.1,1.02
		C579.91,129.74,580.42,130.13,581.01,130.13 M580.13,141.89h1.73v-9.58h-1.73V141.89z M575.38,128.01l-0.86-0.14
		c0,1.2-0.65,1.75-1.49,1.75c-0.86,0-1.51-0.55-1.51-1.75l-0.86,0.14c0,1.81,1.04,2.77,2.37,2.77
		C574.34,130.78,575.38,129.82,575.38,128.01 M570.43,143.44c0-0.82,0.59-1.55,1.37-1.82c3.45,0.29,4.49-0.04,4.49,1.67
		c0,1.1-1,1.73-2.9,1.73C571.57,145.03,570.43,144.5,570.43,143.44 M570.75,135.51c0-1.26,0.75-2.26,2.34-2.26
		c1.59,0,2.32,1,2.32,2.24c0,1.34-0.75,2.43-2.32,2.43C571.51,137.92,570.75,136.84,570.75,135.51 M578.07,130.01
		c-0.12-0.02-0.22-0.02-0.33-0.02c-1.61,0-2.53,1.14-3.02,2.3c-0.53-0.16-1.06-0.24-1.63-0.24c-2.61,0-4.08,1.55-4.08,3.47
		c0,1.2,0.53,2.3,1.53,2.83c-0.47,0.33-0.86,0.82-0.86,1.41c0,0.63,0.28,1.08,0.86,1.37c-1.26,0.49-1.77,1.43-1.77,2.37
		c0,1.71,1.65,2.89,4.59,2.89c2.98,0,4.61-1.3,4.61-3.2c0-1.57-0.96-2.61-3.59-2.61c-1.98,0-3.34,0-3.34-0.94
		c0-0.37,0.22-0.63,0.53-0.82c0.49,0.14,0.96,0.2,1.53,0.2c2.57,0,4.08-1.51,4.08-3.53c0-1.14-0.57-2.16-1.51-2.75
		c0.26-0.78,0.96-1.24,1.79-1.24c0.2,0,0.39,0.02,0.61,0.08V130.01z M563.41,142.14c2.02,0,3.14-0.98,3.45-2.32l-1.16-0.92
		c-0.02,1.22-0.84,2.02-2.2,2.02c-1.88,0-2.75-1.63-2.75-3.59c0-0.12,0-0.39,0.02-0.57h6.38c0.1-2.61-1.08-4.73-3.75-4.73
		c-2.71,0-4.51,2.24-4.51,5.14C558.89,140.02,560.54,142.14,563.41,142.14 M560.91,135.72c0.22-1.41,1.24-2.55,2.53-2.55
		c1.35,0,2.06,1.04,2.16,2.55H560.91z M548.39,141.89h1.73v-6.32c0-1.43,1.16-2.24,2.37-2.24c1.32,0,2.2,0.82,2.2,2.24v6.32h1.71
		v-6.48c0-2.41-1.57-3.38-3.63-3.38c-1.51,0-2.55,0.75-3.08,1.77c0-0.73-0.2-1.53-0.71-1.77l-1.16,0.71
		c0.43,0.22,0.57,0.61,0.57,1.1V141.89z M540.95,141.89h1.73v-6.2c0-1.31,0.59-2.26,1.75-2.26c0.67,0,1.12,0.47,1.12,1.22l1.2-0.67
		c0-1.06-0.69-1.96-2.1-1.96c-1.2,0-2.02,0.69-2.43,1.77c-0.02-0.73-0.28-1.53-0.79-1.77l-1.14,0.71c0.41,0.22,0.65,0.61,0.65,1.1
		V141.89z M534.81,142.14c2.02,0,3.14-0.98,3.45-2.32l-1.16-0.92c-0.02,1.22-0.84,2.02-2.2,2.02c-1.88,0-2.75-1.63-2.75-3.59
		c0-0.12,0-0.39,0.02-0.57h6.38c0.1-2.61-1.08-4.73-3.75-4.73c-2.71,0-4.51,2.24-4.51,5.14
		C530.28,140.02,531.93,142.14,534.81,142.14 M532.3,135.72c0.22-1.41,1.24-2.55,2.53-2.55c1.35,0,2.06,1.04,2.16,2.55H532.3z
		 M517.86,141.89h4.65c4.04,0,5.95-3.1,5.95-7.14c0-4.04-1.92-7.14-5.95-7.14h-4.65V141.89z M519.74,140.59v-11.66h2.63
		c3,0,4.12,2.51,4.12,5.83c0,3.34-1.16,5.83-4.08,5.83H519.74z M506.67,141.89h1.75v-9.58h-1.75V141.89z M500.31,142.14
		c2.37,0,3.81-1.1,3.81-2.92c0-1.63-0.86-2.67-3.42-3.12c-1.71-0.3-2.1-0.84-2.1-1.51c0-0.9,0.71-1.41,2-1.41
		c1.35,0,2.22,0.8,2.24,2.04l1.18-0.82c-0.3-1.33-1.47-2.39-3.47-2.39c-2.28,0-3.53,1.26-3.53,2.77c0,1.39,0.84,2.49,2.98,2.88
		c1.98,0.37,2.49,0.78,2.49,1.73c0,1-0.86,1.59-2.22,1.59c-1.41,0-2.26-0.79-2.34-2.06l-1.18,0.86
		C497.05,141.08,498.19,142.14,500.31,142.14 M489.85,142.14c1.45,0,2.61-0.51,3.3-1.69c0,0.84,0.22,1.45,0.75,1.69l1.12-0.71
		c-0.41-0.22-0.55-0.53-0.55-1.02v-4.77c0-2.73-1.37-3.61-3.77-3.61c-2,0-3.28,1.02-3.59,2.39l1.24,0.82
		c0.06-1.26,0.92-2.1,2.26-2.1c1.34,0,2.1,0.63,2.1,2.55c-3.45,0.06-5.91,1.37-5.91,3.67C486.81,141.16,487.99,142.14,489.85,142.14
		 M490.34,140.96c-1,0-1.73-0.55-1.73-1.67c0-1.51,1.32-2.51,4.12-2.61v2.06C492.72,140.2,491.52,140.96,490.34,140.96
		 M480.1,140.94c-1.85,0-2.69-1.73-2.69-3.89c0-2.14,0.86-3.77,2.69-3.77c1.33,0,2.45,0.8,2.45,2.37v2.92
		C482.55,140.12,481.43,140.94,480.1,140.94 M479.96,142.14c1.55,0,2.59-0.75,3.02-1.73c0,0.75,0.18,1.51,0.69,1.75l1.18-0.71
		c-0.45-0.23-0.57-0.61-0.57-1.1v-13.21l-1.73,0.33v5.69c-0.55-0.67-1.45-1.12-2.59-1.12c-2.75,0-4.42,2.14-4.42,5.02
		S477.19,142.14,479.96,142.14 M467.85,140.77c-2.75,0-3.85-2.51-3.85-6.02c0-3.53,1.1-6,3.85-6c2.77,0,3.87,2.47,3.87,6
		C471.72,138.26,470.62,140.77,467.85,140.77 M467.85,142.14c4.02,0,5.87-3.18,5.87-7.38c0-4.2-1.86-7.36-5.87-7.36
		c-4.02,0-5.87,3.16-5.87,7.36C461.98,138.96,463.83,142.14,467.85,142.14 M452.68,130.13c0.57,0,1.08-0.39,1.08-1.02
		c0-0.63-0.51-1.02-1.08-1.02c-0.59,0-1.1,0.41-1.1,1.02C451.58,129.74,452.09,130.13,452.68,130.13 M451.8,141.89h1.73v-9.58h-1.73
		V141.89z M448.17,132.31l-2.59,7.93l-2.57-7.93h-1.92l3.32,9.26c0.06,0.14,0.24,0.26,0.43,0.26l-0.9,2.45
		c-0.18,0.51-0.57,0.71-1.04,0.71c-0.14,0-0.29,0-0.41-0.04l0.14,1.41c0.14,0.02,0.33,0.02,0.47,0.02c1.2,0,1.92-0.57,2.22-1.45
		l4.53-12.62H448.17z M434.65,142.14c1.45,0,2.61-0.51,3.3-1.69c0,0.84,0.22,1.45,0.75,1.69l1.12-0.71
		c-0.41-0.22-0.55-0.53-0.55-1.02v-4.77c0-2.73-1.37-3.61-3.77-3.61c-2,0-3.28,1.02-3.59,2.39l1.24,0.82
		c0.06-1.26,0.92-2.1,2.26-2.1c1.35,0,2.1,0.63,2.1,2.55c-3.45,0.06-5.91,1.37-5.91,3.67C431.62,141.16,432.8,142.14,434.65,142.14
		 M435.14,140.96c-1,0-1.73-0.55-1.73-1.67c0-1.51,1.33-2.51,4.12-2.61v2.06C437.53,140.2,436.33,140.96,435.14,140.96
		 M421.12,141.89h1.73v-6.32c0-1.43,1.16-2.24,2.37-2.24c1.33,0,2.2,0.82,2.2,2.24v6.32h1.71v-6.48c0-2.41-1.57-3.38-3.63-3.38
		c-1.51,0-2.55,0.75-3.08,1.77c0-0.73-0.2-1.53-0.71-1.77l-1.16,0.71c0.43,0.22,0.57,0.61,0.57,1.1V141.89z M413.25,142.14
		c1.45,0,2.61-0.51,3.3-1.69c0,0.84,0.22,1.45,0.75,1.69l1.12-0.71c-0.41-0.22-0.55-0.53-0.55-1.02v-4.77
		c0-2.73-1.37-3.61-3.77-3.61c-2,0-3.28,1.02-3.59,2.39l1.24,0.82c0.06-1.26,0.92-2.1,2.26-2.1c1.35,0,2.1,0.63,2.1,2.55
		c-3.45,0.06-5.91,1.37-5.91,3.67C410.21,141.16,411.39,142.14,413.25,142.14 M413.73,140.96c-1,0-1.73-0.55-1.73-1.67
		c0-1.51,1.33-2.51,4.12-2.61v2.06C416.12,140.2,414.92,140.96,413.73,140.96 M403.09,142.14c3.24,0,5.22-1.49,5.22-4.1
		c0-2.47-1.59-3.71-5-4.57c-2.16-0.53-2.92-1.14-2.92-2.39c0-1.51,1.24-2.32,3.02-2.32c1.94,0,3.14,0.9,3.22,2.3l1.33-0.96
		c-0.37-1.55-1.61-2.71-4.45-2.71c-3.04,0-4.99,1.55-4.99,3.91c0,1.92,1.12,3.2,4.08,3.98c2.98,0.79,3.81,1.47,3.81,3.08
		c0,1.51-1.18,2.37-3.22,2.37c-1.86,0-3.43-0.9-3.65-2.49l-1.33,1.04C398.67,141.04,400.44,142.14,403.09,142.14 M386.88,142.14
		c2.02,0,3.14-0.98,3.45-2.32l-1.16-0.92c-0.02,1.22-0.84,2.02-2.2,2.02c-1.88,0-2.75-1.63-2.75-3.59c0-0.12,0-0.39,0.02-0.57h6.38
		c0.1-2.61-1.08-4.73-3.75-4.73c-2.71,0-4.51,2.24-4.51,5.14C382.36,140.02,384.01,142.14,386.88,142.14 M384.37,135.72
		c0.22-1.41,1.24-2.55,2.53-2.55c1.35,0,2.06,1.04,2.16,2.55H384.37z M375.89,141.89h1.92l3.43-9.58h-1.71l-2.57,7.97l-2.57-7.97
		h-1.92L375.89,141.89z M363.68,142.14c1.43,0,2.2-0.63,2.41-1.59l-1-0.88c-0.06,0.79-0.53,1.2-1.28,1.2
		c-0.75,0-1.24-0.45-1.24-1.82v-5.53h3.22v-1.22h-3.22v-2.9l-1.73,0.74v2.16h-1.45v1.22h1.45v5.69
		C360.82,140.98,361.6,142.14,363.68,142.14 M354.48,142.14c2.02,0,3.14-0.98,3.45-2.32l-1.16-0.92c-0.02,1.22-0.84,2.02-2.2,2.02
		c-1.88,0-2.75-1.63-2.75-3.59c0-0.12,0-0.39,0.02-0.57h6.38c0.1-2.61-1.08-4.73-3.75-4.73c-2.71,0-4.51,2.24-4.51,5.14
		C349.96,140.02,351.61,142.14,354.48,142.14 M351.97,135.72c0.22-1.41,1.24-2.55,2.53-2.55c1.35,0,2.06,1.04,2.16,2.55H351.97z
		 M343.33,141.89h1.73v-6.2c0-1.31,0.59-2.26,1.75-2.26c0.67,0,1.12,0.47,1.12,1.22l1.2-0.67c0-1.06-0.69-1.96-2.1-1.96
		c-1.2,0-2.02,0.69-2.43,1.77c-0.02-0.73-0.29-1.53-0.8-1.77l-1.14,0.71c0.41,0.22,0.65,0.61,0.65,1.1V141.89z M335.44,142.14
		c1.45,0,2.61-0.51,3.3-1.69c0,0.84,0.22,1.45,0.75,1.69l1.12-0.71c-0.41-0.22-0.55-0.53-0.55-1.02v-4.77
		c0-2.73-1.37-3.61-3.77-3.61c-2,0-3.28,1.02-3.59,2.39l1.24,0.82c0.06-1.26,0.92-2.1,2.26-2.1s2.1,0.63,2.1,2.55
		c-3.45,0.06-5.91,1.37-5.91,3.67C332.4,141.16,333.58,142.14,335.44,142.14 M335.93,140.96c-1,0-1.73-0.55-1.73-1.67
		c0-1.51,1.33-2.51,4.12-2.61v2.06C338.31,140.2,337.11,140.96,335.93,140.96 M327.59,142.14c2.02,0,3.14-1,3.45-2.34l-1.16-0.92
		c-0.02,1.24-0.9,2.04-2.24,2.04c-1.69,0-2.69-1.65-2.69-3.89c0-2.22,0.96-3.77,2.69-3.77c1.39,0,2.26,0.79,2.28,2l1.14-0.86
		c-0.31-1.37-1.45-2.37-3.47-2.37c-2.85,0-4.53,2.16-4.53,5C323.06,139.9,324.71,142.14,327.59,142.14 M319.64,130.13
		c0.57,0,1.08-0.39,1.08-1.02c0-0.63-0.51-1.02-1.08-1.02c-0.59,0-1.1,0.41-1.1,1.02C318.54,129.74,319.05,130.13,319.64,130.13
		 M318.76,141.89h1.73v-9.58h-1.73V141.89z M311.05,141.89h1.88v-12.91h4.3l0.28-1.37h-11.05l0.31,1.37h4.28V141.89z M291.23,141.89
		h1.73v-6.32c0-1.43,1.16-2.24,2.37-2.24c1.33,0,2.2,0.82,2.2,2.24v6.32h1.71v-6.48c0-2.41-1.57-3.38-3.63-3.38
		c-1.51,0-2.55,0.75-3.08,1.77c0-0.73-0.2-1.53-0.71-1.77l-1.16,0.71c0.43,0.22,0.57,0.61,0.57,1.1V141.89z M283.36,142.14
		c1.45,0,2.61-0.51,3.3-1.69c0,0.84,0.22,1.45,0.75,1.69l1.12-0.71c-0.41-0.22-0.55-0.53-0.55-1.02v-4.77
		c0-2.73-1.37-3.61-3.77-3.61c-2,0-3.28,1.02-3.59,2.39l1.24,0.82c0.06-1.26,0.92-2.1,2.26-2.1c1.35,0,2.1,0.63,2.1,2.55
		c-3.45,0.06-5.91,1.37-5.91,3.67C280.33,141.16,281.51,142.14,283.36,142.14 M283.85,140.96c-1,0-1.73-0.55-1.73-1.67
		c0-1.51,1.33-2.51,4.12-2.61v2.06C286.24,140.2,285.04,140.96,283.85,140.96 M277.51,132.31l-2.59,7.93l-2.57-7.93h-1.91l3.32,9.26
		c0.06,0.14,0.25,0.26,0.43,0.26l-0.9,2.45c-0.18,0.51-0.57,0.71-1.04,0.71c-0.14,0-0.29,0-0.41-0.04l0.14,1.41
		c0.14,0.02,0.33,0.02,0.47,0.02c1.2,0,1.92-0.57,2.22-1.45l4.53-12.62H277.51z M266.75,141.89h1.73v-14.76l-1.73,0.33V141.89z
		 M258.88,142.14c1.45,0,2.61-0.51,3.3-1.69c0,0.84,0.22,1.45,0.75,1.69l1.12-0.71c-0.41-0.22-0.55-0.53-0.55-1.02v-4.77
		c0-2.73-1.37-3.61-3.77-3.61c-2,0-3.28,1.02-3.59,2.39l1.24,0.82c0.06-1.26,0.92-2.1,2.26-2.1c1.35,0,2.1,0.63,2.1,2.55
		c-3.45,0.06-5.91,1.37-5.91,3.67C255.84,141.16,257.02,142.14,258.88,142.14 M259.37,140.96c-1,0-1.73-0.55-1.73-1.67
		c0-1.51,1.33-2.51,4.12-2.61v2.06C261.75,140.2,260.55,140.96,259.37,140.96 M252.29,142.14c1.43,0,2.2-0.63,2.41-1.59l-1-0.88
		c-0.06,0.79-0.53,1.2-1.28,1.2c-0.75,0-1.24-0.45-1.24-1.82v-5.53h3.22v-1.22h-3.22v-2.9l-1.73,0.74v2.16h-1.45v1.22h1.45v5.69
		C249.44,140.98,250.21,142.14,252.29,142.14 M244.58,126.28c0.61,0,1.08-0.41,1.08-0.88c0-0.49-0.49-0.86-1.08-0.86
		c-0.63,0-1.1,0.39-1.1,0.86C243.48,125.87,243.97,126.28,244.58,126.28 M243.73,141.89h1.88v-14.27h-1.88V141.89z"/>
	<path class="st1" d="M207.97,170.39l-18.48-12l-36.89-23.96l-12.92-8.39l0.07-0.1C121,115.57,122.4,96.43,122.4,96.43l-0.21,0
		V84.52V40.54V18.51c0-6.51-5.27-11.78-11.78-11.78c-6.51,0-11.78,5.27-11.78,11.78v22.03v43.99v11.92
		c-0.42,12.6-8.29,21.16-13.91,25.68c-0.2,0.12-0.42,0.19-0.62,0.32l-18.48,12l-36.89,23.96l-18.48,12
		c-5.46,3.54-7.01,10.84-3.47,16.3c3.55,5.46,10.84,7,16.3,3.46l18.48-12l36.89-23.96l14.26-9.26c15.07-7.43,27.06-3.09,31.73-0.69
		l15.32,9.95l36.89,23.96l18.48,12c5.46,3.54,12.75,2,16.3-3.46C214.98,181.22,213.42,173.93,207.97,170.39"/>
	<path class="st2" d="M20.46,141.26c-3.2,0-6.32-1.66-8.03-4.64c-2.55-4.43-1.02-10.08,3.4-12.63L58.4,99.59c0,0,5.73-3.29,5.72-9.9
		L64,40.89c0.01-5.1,4.15-9.23,9.24-9.23h0.02c5.11,0.01,9.24,4.16,9.23,9.26l-0.1,59.52c0,0-0.01,6.61-5.74,9.91l-51.6,29.68
		C23.61,140.86,22.02,141.26,20.46,141.26"/>
	<path class="st2" d="M200.67,141.26c3.2,0,6.31-1.66,8.03-4.64c2.54-4.43,1.02-10.08-3.41-12.63l-42.35-24.36
		c0,0-5.73-3.3-5.74-9.91l-0.08-48.85c-0.01-5.1-4.15-9.23-9.24-9.23h-0.02c-5.1,0.01-9.24,4.16-9.23,9.26l0.1,59.52
		c0,0,0.01,6.61,5.74,9.91l51.6,29.68C197.53,140.86,199.11,141.26,200.67,141.26"/>
	<path class="st2" d="M47.32,190.66c-1.6,2.61-1.71,5.93,0.01,8.73c2.56,4.16,8.22,5.58,12.63,3.16l42.17-23.05
		c0,0,5.8-3.17,11.61-0.02l42.28,22.89c4.42,2.39,10.07,0.96,12.61-3.2l0.01-0.01c2.54-4.17,1.02-9.5-3.42-11.9l-51.53-27.9
		c0,0-5.81-3.15-11.61,0.02l-51.41,28.1C49.24,188.28,48.1,189.38,47.32,190.66"/>
</g>
<line class="st3" x1="241.91" y1="155.07" x2="584.01" y2="155.07"/>
<g>
	<defs>
		<rect id="SVGID_3_" x="-153" y="-173.28" width="841.89" height="595.28"/>
	</defs>
	<clipPath id="SVGID_4_">
		<use xlink:href="#SVGID_3_"  style="overflow:visible;"/>
	</clipPath>
	<path class="st4" d="M544.35,103.54h10.77V35.02h26.97l1.63-7.61h-68.09l1.85,7.61h26.87V103.54z M480.39,104.85
		c19.9,0,31.65-8.05,31.65-22.08c0-13.38-9.9-20.12-30.56-24.25C468.1,55.9,463.32,52.96,463.32,46c0-7.94,7.83-12.4,18.93-12.4
		c11.96,0,19.58,4.79,20.01,12.29l7.83-5.22c-2.28-8.27-9.9-14.47-27.3-14.47c-18.38,0-30.35,8.38-30.35,20.99
		c0,10.55,6.96,17.4,25.02,21.32c18.27,3.92,23.6,7.07,23.6,16.1c0,7.94-7.29,12.62-20.12,12.62c-11.42,0-21.32-4.89-22.73-13.27
		l-7.83,5.66C453.09,98.97,464.19,104.85,480.39,104.85 M421.99,103.54h10.66V27.4h-10.66V103.54z M388.27,103.54h10.66V27.4h-10.66
		V103.54z M348.25,104.85c14.36,0,24.15-6.2,26.43-14.68l-7.61-5.22c-0.65,7.61-9.14,12.29-18.92,12.29
		c-17.18,0-25.56-13.05-25.56-31.76c0-18.71,8.38-31.76,25.67-31.76c9.68,0,18.16,4.68,18.82,12.18l7.61-5.22
		c-2.28-8.48-12.07-14.47-26.54-14.47c-24.47,0-37.09,16.86-37.09,39.27C311.05,87.88,323.66,104.85,348.25,104.85 M277.55,104.85
		c14.36,0,24.15-6.2,26.43-14.68l-7.61-5.22c-0.65,7.61-9.14,12.29-18.93,12.29c-17.18,0-25.56-13.05-25.56-31.76
		c0-18.71,8.37-31.76,25.67-31.76c9.68,0,18.16,4.68,18.82,12.18l7.61-5.22c-2.28-8.48-12.07-14.47-26.54-14.47
		c-24.47,0-37.09,16.86-37.09,39.27C240.35,87.88,252.97,104.85,277.55,104.85"/>
	<path class="st5" d="M427.28,19.23c3.92,0,7.18-2.17,7.18-6.2c0-4.02-3.26-6.2-7.18-6.2c-3.81,0-7.07,2.17-7.07,6.2
		C420.21,17.06,423.47,19.23,427.28,19.23"/>
	<path class="st6" d="M394.11,19.23c3.92,0,7.18-2.17,7.18-6.2c0-4.02-3.26-6.2-7.18-6.2c-3.81,0-7.07,2.17-7.07,6.2
		C387.04,17.06,390.3,19.23,394.11,19.23"/>
</g>
</svg>
