<?xml version="1.0" encoding="utf-8"?>
<!-- Generator: Adobe Illustrator 16.0.0, SVG Export Plug-In . SVG Version: 6.00 Build 0)  -->
<!DOCTYPE svg PUBLIC "-//W3C//DTD SVG 1.1//EN" "http://www.w3.org/Graphics/SVG/1.1/DTD/svg11.dtd">
<svg version="1.1" id="Layer_1" xmlns="http://www.w3.org/2000/svg" xmlns:xlink="http://www.w3.org/1999/xlink" x="0px" y="0px"
	 width="209.514px" height="31px" viewBox="0 0 209.514 31" enable-background="new 0 0 209.514 31" xml:space="preserve">
<g>
	<path fill="#21201E" d="M83.584,18.998c0-1.395-0.349-2.324-1.022-2.857c-0.556-0.441-1.185-0.606-2.65-0.743
		c1.116-0.186,1.582-0.351,2.044-0.721c0.675-0.537,1.001-1.486,1.001-2.859c0-1.765-0.512-2.812-1.67-3.46
		c-0.815-0.445-1.791-0.606-3.672-0.606H63.628v15.499h14.635c1.697,0,2.721-0.138,3.44-0.489
		C82.955,22.158,83.584,20.879,83.584,18.998z M78.286,12.584c0,0.514-0.209,0.93-0.578,1.139c-0.28,0.162-0.606,0.208-1.559,0.208
		h-7.922V11.19h7.806c0.882,0,1.091,0.023,1.394,0.092C77.961,11.469,78.286,11.935,78.286,12.584z M78.845,18.416
		c0,0.627-0.257,1.07-0.696,1.256c-0.305,0.115-0.489,0.139-1.488,0.139h-8.433v-2.832h8.315c1.022,0,1.21,0,1.465,0.096
		C78.542,17.231,78.845,17.721,78.845,18.416z"/>
	<path fill="#21201E" d="M109.046,23.25l-8.479-15.5h-6.321l-8.712,15.5h5.343l1.488-2.766h9.991l1.533,2.766H109.046z
		 M100.706,17.256h-6.643l3.298-6.182L100.706,17.256z"/>
	<polygon fill="#21201E" points="132.439,23.25 132.439,7.75 127.979,7.75 128.094,19.531 118.71,7.75 111.204,7.75 111.204,23.25 
		115.734,23.25 115.617,11.585 124.866,23.25 	"/>
	<path fill="#21201E" d="M155.881,18.117v-0.701h-4.576c0,1.07-0.209,1.532-0.814,1.84c-0.627,0.298-1.141,0.346-4.9,0.346
		c-4.367,0-4.766-0.322-4.766-3.902c0-0.838,0.047-1.881,0.07-2.208c0.141-1.302,0.627-1.835,1.838-2.044
		c0.346-0.046,2.043-0.092,4.041-0.092c3.928,0,4.297,0.163,4.391,1.835h4.508v-0.583c0-2.581-0.742-3.905-2.578-4.507
		c-1.068-0.372-2.717-0.464-7.598-0.464c-4.365,0-5.855,0.209-7.25,1.021c-1.625,0.932-2.088,2.395-2.088,6.485
		c0,4.603,0.439,6.226,1.975,7.205c1.254,0.813,2.719,1.019,7.109,1.019c6.924,0,7.992-0.115,9.291-1.066
		C155.531,21.553,155.881,20.461,155.881,18.117z"/>
	<rect x="159.594" y="7.75" fill="#21201E" width="4.717" height="15.5"/>
	<path fill="#0B1D8B" d="M0,15.499C0,6.942,6.937,0,15.497,0c6.861,0,12.684,4.464,14.722,10.646C32.256,4.464,38.077,0,44.942,0
		c8.556,0,15.497,6.942,15.497,15.499C60.439,24.061,53.498,31,44.942,31c-6.865,0-12.684-4.467-14.722-10.646
		C28.181,26.533,22.36,31,15.497,31C6.937,31,0,24.061,0,15.499z"/>
	<path fill="#FFFFFF" d="M25.173,18.441c0-1.608-0.324-2.767-0.951-3.465c-0.721-0.836-1.672-1.114-3.999-1.208
		c-1.252-0.044-2.183-0.067-2.46-0.067h-4.392c-1.486,0-1.604-0.046-1.858-0.096c-0.698-0.159-1.045-0.579-1.045-1.254
		c0-0.859,0.417-1.186,1.58-1.277c0.719-0.046,2.81-0.117,4.25-0.117c3.184,0,3.625,0.188,3.625,1.534h4.603
		c0-2.671-0.512-3.741-2.067-4.322c-1.187-0.439-2.418-0.535-6.948-0.535c-2.998,0-4.3,0.046-5.809,0.257
		c-2.88,0.37-3.881,1.626-3.881,4.718c0,2.441,0.652,3.623,2.278,4.183c0.79,0.277,2.138,0.396,4.392,0.396h4.274
		c1.928,0,2.044,0.02,2.323,0.044c0.953,0.093,1.419,0.536,1.419,1.325c0,1.369-0.583,1.512-6.135,1.512
		c-1.185,0-2.51-0.072-2.952-0.16c-0.696-0.164-0.859-0.445-0.905-1.608H5.888c-0.023,0.351-0.023,0.743-0.023,0.907
		c0,2.209,0.744,3.324,2.489,3.762c1.137,0.304,2.716,0.396,6.225,0.396c3.322,0,4.646-0.042,6.507-0.229
		C24.059,22.833,25.173,21.553,25.173,18.441z"/>
	<g>
		<polygon fill="#FFFFFF" points="56.628,23.25 48.148,7.75 41.828,7.75 33.115,23.25 38.46,23.25 39.948,20.484 49.936,20.484 
			51.472,23.25 		"/>
		<polygon fill="#0B1D8B" points="48.288,17.256 41.643,17.256 44.942,11.074 		"/>
	</g>
	<path fill="#0B1D8B" d="M186.047,7.669h-14.406v15.575h15.137c0,0,5.584,0.639,5.584-5.314v-4.968
		C192.361,12.962,193.113,7.669,186.047,7.669z M187.76,14.253v2.678c0,3.026-2.633,2.635-2.633,2.635h-8.695l0.018-8.146
		l8.475-0.002C188.16,11.419,187.76,14.253,187.76,14.253z"/>
	<polygon fill="#0B1D8B" points="194.055,12.351 198.523,17.531 193.771,23.264 198.754,23.264 201.584,19.249 204.561,23.264 
		209.514,23.264 204.734,17.273 209.057,12.351 203.904,12.351 201.645,15.465 199.352,12.351 	"/>
</g>
</svg>
